<svg width="18" height="18" viewBox="0 0 18 18" fill="none" xmlns="http://www.w3.org/2000/svg">
<path fill-rule="evenodd" clip-rule="evenodd" d="M2.29045 4.42274C2.42286 3.29063 3.33891 2.38738 4.48334 2.25948C5.28831 2.16951 6.1008 2.10387 6.91674 2.06256C6.94197 2.07187 6.9691 2.0761 6.99656 2.07469C9.19072 1.96299 11.3919 2.03499 13.5771 2.29059C14.7092 2.42299 15.6124 3.33899 15.7403 4.48339C15.8303 5.28862 15.896 6.10137 15.9373 6.91756C15.9281 6.94262 15.924 6.96952 15.9254 6.99674C16.0371 9.1909 15.9651 11.3921 15.7095 13.5773C15.6447 14.131 15.3925 14.6299 15.0179 15.0102C14.6366 15.3892 14.1346 15.6444 13.5771 15.7096C10.5359 16.0653 7.46372 16.0653 4.42256 15.7096C3.87261 15.6453 3.37666 15.396 2.99737 15.0255C2.61427 14.6434 2.35609 14.1385 2.29045 13.5773C1.93476 10.5361 1.93476 7.4639 2.29045 4.42274ZM1.43556 2.52385C2.07493 1.56582 3.12043 0.90246 4.31673 0.768759C7.40427 0.423679 10.5957 0.423679 13.6833 0.768759C14.3265 0.840649 14.9262 1.06568 15.4425 1.40732C15.4552 1.41577 15.4666 1.42542 15.4764 1.436C16.4342 2.0754 17.0974 3.12074 17.2311 4.31679C17.5761 7.40439 17.5761 10.5958 17.2311 13.6833C17.1277 14.6081 16.7079 15.4427 16.08 16.0693C15.4522 16.7032 14.6133 17.1273 13.6833 17.2313C10.5957 17.5763 7.40427 17.5763 4.31673 17.2313C3.3993 17.1287 2.57055 16.7147 1.94565 16.0951C1.30341 15.4657 0.873352 14.6208 0.768576 13.6833C0.423496 10.5958 0.423496 7.40439 0.768576 4.31679C0.840466 3.67359 1.0655 3.07389 1.40714 2.55759C1.41552 2.54492 1.42508 2.53367 1.43556 2.52385Z" fill="#748797"/>
</svg>
