<svg width="19" height="18" viewBox="0 0 19 18" fill="none" xmlns="http://www.w3.org/2000/svg">
<path fill-rule="evenodd" clip-rule="evenodd" d="M2.29045 4.42274C2.42286 3.29063 3.33891 2.38738 4.48334 2.25948C7.46017 1.92677 10.5398 1.92677 13.5167 2.25948C13.8386 2.29545 14.1424 2.39277 14.4158 2.53926C14.4976 2.58313 14.5995 2.57208 14.6652 2.50641L15.4681 1.70353C15.5542 1.61738 15.5441 1.47454 15.4425 1.40732C14.9262 1.06568 14.3265 0.840649 13.6833 0.768759C10.5957 0.423679 7.40427 0.423679 4.31673 0.768759C2.49035 0.972879 1.01545 2.41153 0.800612 4.24849C0.431372 7.4054 0.431372 10.5946 0.800612 13.7515C1.01545 15.5885 2.49035 17.0271 4.31673 17.2313C7.40427 17.5763 10.5957 17.5763 13.6833 17.2313C15.5096 17.0271 16.9845 15.5885 17.1994 13.7515C17.5032 11.1544 17.557 8.5353 17.361 5.93042C17.3482 5.76086 17.1428 5.68568 17.0225 5.80591L15.9838 6.84469C15.9436 6.88481 15.9225 6.94008 15.9254 6.99674C16.0371 9.1909 15.9651 11.3921 15.7095 13.5773C15.5771 14.7094 14.6611 15.6126 13.5167 15.7405C10.5398 16.0732 7.46017 16.0732 4.48334 15.7405C3.33891 15.6126 2.42286 14.7094 2.29045 13.5773C1.93476 10.5361 1.93476 7.4639 2.29045 4.42274ZM18.0303 1.96968C18.3232 2.26257 18.3232 2.73744 18.0303 3.03034L9.0303 12.0303C8.7374 12.3232 8.2626 12.3232 7.9697 12.0303L4.96967 9.0303C4.67678 8.7374 4.67678 8.2626 4.96967 7.9697C5.26256 7.6768 5.73744 7.6768 6.03033 7.9697L8.5 10.4393L16.9697 1.96968C17.2626 1.67677 17.7374 1.67677 18.0303 1.96968Z" fill="#1DD0A8"/>
</svg>
